<svg id="Слой_1" data-name="Слой 1" xmlns="http://www.w3.org/2000/svg" xmlns:xlink="http://www.w3.org/1999/xlink" viewBox="0 0 16 16">
  <defs>
    <style>
      .cls-1 {
        fill: #fff;
      }

      .cls-2 {
        fill-opacity: 0.24;
        fill: url(#linear-gradient);
      }
    </style>
    <linearGradient id="linear-gradient" x1="8.25" y1="777" x2="8.25" y2="787" gradientTransform="translate(0 -774)" gradientUnits="userSpaceOnUse">
      <stop offset="0" stop-color="#0062ff" stop-opacity="0"/>
      <stop offset="1" stop-color="#0062ff"/>
    </linearGradient>
  </defs>
  <title>next-right3</title>
  <path class="cls-1" d="M5.6,3.1a.48.48,0,0,0,0,.7L9.8,8,5.7,12.1a.49.49,0,0,0,.7.7l4.5-4.5a.48.48,0,0,0,0-.7L6.4,3.1A1.1,1.1,0,0,0,5.6,3.1Z"/>
  <path class="cls-2" d="M5.6,3.1a.48.48,0,0,0,0,.7L9.8,8,5.7,12.1a.49.49,0,0,0,.7.7l4.5-4.5a.48.48,0,0,0,0-.7L6.4,3.1A1.1,1.1,0,0,0,5.6,3.1Z"/>
</svg>
