<svg id="Layer_1" data-name="Layer 1" xmlns="http://www.w3.org/2000/svg" xmlns:xlink="http://www.w3.org/1999/xlink" viewBox="0 0 16 16">
  <defs>
    <style>
      .cls-1 {
        fill: #fff;
      }

      .cls-2 {
        fill-opacity: 0.24;
        fill: url(#linear-gradient);
      }
    </style>
    <linearGradient id="linear-gradient" x1="8" y1="16.04" x2="8" y2="3.96" gradientTransform="matrix(1, 0, 0, -1, 0, 18)" gradientUnits="userSpaceOnUse">
      <stop offset="0" stop-color="#0062ff" stop-opacity="0"/>
      <stop offset="1" stop-color="#0062ff"/>
    </linearGradient>
  </defs>
  <title>next-all-right3</title>
  <path class="cls-1" d="M2,3a1,1,0,0,1,1.58-.82l7.13,5a1,1,0,0,1,0,1.64l-7.13,5A1,1,0,0,1,2,13Zm12-.22a.75.75,0,0,0-1.5,0v10.5a.75.75,0,0,0,1.5,0Z"/>
  <path class="cls-2" d="M2,3a1,1,0,0,1,1.58-.82l7.13,5a1,1,0,0,1,0,1.64l-7.13,5A1,1,0,0,1,2,13Zm12-.22a.75.75,0,0,0-1.5,0v10.5a.75.75,0,0,0,1.5,0Z"/>
</svg>
